<svg width="16" height="20" viewBox="0 0 16 20" fill="none" xmlns="http://www.w3.org/2000/svg">
<path d="M7.82356 14.4118L7.11645 15.1189L7.82356 15.826L8.53066 15.1189L7.82356 14.4118ZM8.82356 0.999996C8.82356 0.44771 8.37584 -4.45111e-06 7.82356 -4.47525e-06C7.27127 -4.49939e-06 6.82356 0.44771 6.82356 0.999995L8.82356 0.999996ZM0.410569 8.41298L7.11645 15.1189L8.53066 13.7047L1.82478 6.99877L0.410569 8.41298ZM8.53066 15.1189L15.2365 8.41298L13.8223 6.99877L7.11645 13.7047L8.53066 15.1189ZM8.82356 14.4118L8.82356 0.999996L6.82356 0.999995L6.82356 14.4118L8.82356 14.4118Z" fill="white"/>
<path d="M0 19L15.6471 19" stroke="white" stroke-width="2"/>
</svg>
