<svg width="16" height="20" viewBox="0 0 16 20" fill="none" xmlns="http://www.w3.org/2000/svg">
<path d="M7.82356 14.4119L7.11645 15.119L7.82356 15.8261L8.53066 15.119L7.82356 14.4119ZM8.82356 1.0001C8.82356 0.447817 8.37584 0.00010236 7.82356 0.000102336C7.27127 0.000102312 6.82356 0.447817 6.82356 1.0001L8.82356 1.0001ZM0.410569 8.41309L7.11645 15.119L8.53066 13.7048L1.82478 6.99888L0.410569 8.41309ZM8.53066 15.119L15.2365 8.41309L13.8223 6.99888L7.11645 13.7048L8.53066 15.119ZM8.82356 14.4119L8.82356 1.0001L6.82356 1.0001L6.82356 14.4119L8.82356 14.4119Z" fill="white"/>
<path d="M0 19L15.6471 19" stroke="white" stroke-width="2"/>
</svg>
