<svg width="16" height="20" viewBox="0 0 16 20" fill="none" xmlns="http://www.w3.org/2000/svg">
<path d="M7.82356 14.4117L7.11645 15.1189L7.82356 15.826L8.53066 15.1189L7.82356 14.4117ZM8.82356 0.99998C8.82356 0.447695 8.37584 -1.97099e-05 7.82356 -1.9734e-05C7.27127 -1.97582e-05 6.82356 0.447695 6.82356 0.99998L8.82356 0.99998ZM0.410569 8.41297L7.11645 15.1189L8.53066 13.7046L1.82478 6.99876L0.410569 8.41297ZM8.53066 15.1189L15.2365 8.41297L13.8223 6.99876L7.11645 13.7046L8.53066 15.1189ZM8.82356 14.4117L8.82356 0.99998L6.82356 0.99998L6.82356 14.4117L8.82356 14.4117Z" fill="white"/>
<path d="M0 19L15.6471 19" stroke="white" stroke-width="2"/>
</svg>
